# xmcd CD database file
#
# Track frame offsets:
#	150
#	14211
#	27955
#	38635
#	50952
#	61260
#	76392
#	87807
#	98727
#	112441
#	126875
#	139569
#	151472
#
# Disc length: 2389 seconds
#
# Revision: 0
# Processed by: cddbd v1.5.2PL0 Copyright (c) Steve Scherf et al.
# Submitted via: CDex 1.51
#
DISCID=b109530d
DTITLE=Die Hiatamadln  - 10 Jahre
DYEAR=2006
DGENRE=Volkstümlich
TTITLE0=Steirisch klingt's am Schönsten 
TTITLE1=Jubiläumspolka 
TTITLE2=Musik vertreibt die Sorgen 
TTITLE3=Abendstille im Herzen 
TTITLE4=Du allein 
TTITLE5=Wilma's Bariton 
TTITLE6=Achterbahn
TTITLE7=Freunde für Leben
TTITLE8=Versprich mir nichts 
TTITLE9=Aber dann bist du da
TTITLE10=Mein grösstes Wunder 
TTITLE11=Du gibst mir Heimat
TTITLE12=Hiatapotpourri -Mach dein Herzenstürl auf-Du bist der Meine-Hiatamadln san guat drauf-Hiatamadlzeit-Jeder Tag is
EXTD=YEAR: 2006
EXTT0=
EXTT1=
EXTT2=
EXTT3=
EXTT4=
EXTT5=
EXTT6=
EXTT7=
EXTT8=
EXTT9=
EXTT10=
EXTT11=
EXTT12=
PLAYORDER=
